<svg viewBox="0 0 512 512" xmlns="http://www.w3.org/2000/svg"><linearGradient gradientTransform="rotate(-42.998 304.8 302.497)" gradientUnits="userSpaceOnUse" id="a" x1="265.474" x2="339.793" y1="298.72" y2="298.72"><stop offset="0" stop-color="#6ad92a"/><stop offset="1" stop-color="#acff6c"/></linearGradient><path fill="url(#a)" d="M317.68 265L337 293l-19.32 36L286 340l-13.41-56.32z"/><linearGradient gradientTransform="rotate(-42.998 409.345 242.71)" gradientUnits="userSpaceOnUse" id="b" x1="259.166" x2="533.134" y1="221.992" y2="221.992"><stop offset="0" stop-color="#8adc3f"/><stop offset="1" stop-color="#ccff81"/></linearGradient><path d="M354.79 31.74C440.9 69.72 501 155.84 501 256c0 81.17-39.47 153.11-100.26 197.69-9.05-32.37-15.99-74.37-2.8-102.49 24.17-51.58 16.11-83.82-56.41-183.86-46.78-64.52-15.12-110.84 13.26-135.6z" fill="url(#b)"/><linearGradient gradientTransform="rotate(-42.998 127.053 283.674)" gradientUnits="userSpaceOnUse" id="c" x1="-4.769" x2="255.706" y1="304.218" y2="304.218"><stop offset="0" stop-color="#8adc3f"/><stop offset="1" stop-color="#ccff81"/></linearGradient><path d="M198.07 243.63c-33.85 88.23 87.04 128.53 29.01 236.51-3.4 6.34-6.62 12.29-9.64 17.84C100.45 479.49 11 378.19 11 256c0-74.76 33.48-141.69 86.27-186.63 52.13 43.97 122.81 116.89 100.8 174.26z" fill="url(#c)"/><linearGradient gradientTransform="rotate(-42.998 304.8 302.497)" gradientUnits="userSpaceOnUse" id="d" x1="107.591" x2="526.017" y1="234.488" y2="234.488"><stop offset="0" stop-color="#7dabdc"/><stop offset="1" stop-color="#bfedff"/></linearGradient><path d="M341.53 167.34c72.52 100.04 80.58 132.28 56.41 183.86-13.19 28.12-6.25 70.12 2.8 102.49C360.19 483.44 310.15 501 256 501c-13.12 0-26-1.03-38.56-3.02 3.02-5.55 6.24-11.5 9.64-17.84 58.03-107.98-62.86-148.28-29.01-236.51 22.01-57.37-48.67-130.29-100.8-174.26C140.03 32.97 195.44 11 256 11c35.15 0 68.58 7.4 98.79 20.74-28.38 24.76-60.04 71.08-13.26 135.6zM337 293l-19.32-28-45.09 18.68L286 340l31.68-11L337 293z" fill="url(#d)"/><path d="M256 511a257.353 257.353 0 01-40.125-3.143c-59.311-9.374-113.685-39.722-153.101-85.451C22.938 376.19 1 317.093 1 256c0-74.869 32.727-145.668 89.788-194.245C136.812 22.577 195.485 1 256 1c35.787 0 70.384 7.265 102.829 21.592C451.268 63.363 511 154.982 511 256c0 40.73-9.84 81.246-28.455 117.168-18.009 34.751-44.252 65.384-75.891 88.587C362.742 493.971 310.646 511 256 511zm0-490c-55.769 0-109.838 19.882-152.248 55.985C51.162 121.754 21 187.003 21 256c0 116.356 83.271 213.97 198.001 232.104A237.419 237.419 0 00256 491c50.361 0 98.366-15.689 138.825-45.372C455.047 401.464 491 330.575 491 256c0-93.098-55.05-177.534-140.245-215.11l-.004-.001C320.866 27.691 288.987 21 256 21z"/><path d="M400.734 463.693c-4.373 0-8.39-2.892-9.625-7.311-13.271-47.466-14.018-84.283-2.223-109.43 12.208-26.051 14.247-44.117 7.524-66.651-7.279-24.401-25.525-55.428-62.978-107.093-22.586-31.151-30.381-61.761-23.167-90.976 5.204-21.076 17.972-40.599 37.949-58.028 4.161-3.63 10.478-3.202 14.109.961 3.631 4.162 3.2 10.479-.961 14.109-40.781 35.579-44.73 76.691-11.738 122.194 73.221 101.007 83.943 137.264 57.37 193.974-12.087 25.767-4.836 66.185 3.375 95.555 1.487 5.318-1.619 10.836-6.938 12.323a9.943 9.943 0 01-2.697.373zm-183.303 44.289a9.96 9.96 0 01-4.771-1.218c-4.851-2.64-6.644-8.712-4.005-13.563a3237.42 3237.42 0 009.611-17.787c29.001-53.963 9.872-88.572-10.381-125.214-17.822-32.244-36.251-65.586-19.153-110.152 20.29-52.884-52.635-124.846-97.911-163.034-4.222-3.561-4.757-9.87-1.197-14.091 3.562-4.222 9.871-4.757 14.091-1.197 60.265 50.831 127.173 124.273 103.689 185.486-13.764 35.875.949 62.493 17.984 93.313 20.931 37.869 44.654 80.791 10.498 144.349a3393 3393 0 01-9.665 17.886 9.99 9.99 0 01-8.79 5.222zM286 350a10.004 10.004 0 01-9.729-7.683l-13.41-56.32a10 10 0 015.901-11.555l45.09-18.68a10 10 0 0112.058 3.559l19.32 28a9.999 9.999 0 01.581 10.408l-19.32 36a9.998 9.998 0 01-5.531 4.718l-31.68 11A10.028 10.028 0 01286 350zm-1.708-60.344l8.875 37.27 17.547-6.093 14.587-27.181-11.262-16.32-29.747 12.324z"/></svg>