<?xml version="1.0" ?><svg style="enable-background:new 0 0 512 512;" version="1.1" viewBox="0 0 512 512" xml:space="preserve" xmlns="http://www.w3.org/2000/svg" xmlns:xlink="http://www.w3.org/1999/xlink"><g id="_x34__x5F_Earth"><g id="XMLID_1847_"><g id="XMLID_1848_"><g id="XMLID_1866_"><linearGradient gradientTransform="matrix(0.7314 -0.682 0.682 0.7314 -124.4225 289.1352)" gradientUnits="userSpaceOnUse" id="XMLID_2_" x1="265.4743" x2="339.7934" y1="298.7203" y2="298.7203"><stop offset="0" style="stop-color:#6AD92A"/><stop offset="1" style="stop-color:#ACFF6C"/></linearGradient><polygon id="XMLID_1872_" points="317.68,265 337,293 317.68,329 286,340 272.59,283.68     " style="fill:url(#XMLID_2_);"/><linearGradient gradientTransform="matrix(0.7314 -0.682 0.682 0.7314 -55.5635 344.3737)" gradientUnits="userSpaceOnUse" id="XMLID_3_" x1="259.1657" x2="533.1341" y1="221.9921" y2="221.9921"><stop offset="0" style="stop-color:#8ADC3F"/><stop offset="1" style="stop-color:#CCFF81"/></linearGradient><path d="M354.79,31.74C440.9,69.72,501,155.84,501,256      c0,81.17-39.47,153.11-100.26,197.69c-9.05-32.37-15.99-74.37-2.8-102.49c24.17-51.58,16.11-83.82-56.41-183.86      C294.75,102.82,326.41,56.5,354.79,31.74z" id="XMLID_1871_" style="fill:url(#XMLID_3_);"/><linearGradient gradientTransform="matrix(0.7314 -0.682 0.682 0.7314 -159.3348 162.8551)" gradientUnits="userSpaceOnUse" id="XMLID_4_" x1="-4.7693" x2="255.7056" y1="304.2178" y2="304.2178"><stop offset="0" style="stop-color:#8ADC3F"/><stop offset="1" style="stop-color:#CCFF81"/></linearGradient><path d="M198.07,243.63c-33.85,88.23,87.04,128.53,29.01,236.51      c-3.4,6.34-6.62,12.29-9.64,17.84C100.45,479.49,11,378.19,11,256c0-74.76,33.48-141.69,86.27-186.63      C149.4,113.34,220.08,186.26,198.07,243.63z" id="XMLID_1870_" style="fill:url(#XMLID_4_);"/><linearGradient gradientTransform="matrix(0.7314 -0.682 0.682 0.7314 -124.4225 289.1352)" gradientUnits="userSpaceOnUse" id="XMLID_5_" x1="107.5906" x2="526.0169" y1="234.4877" y2="234.4877"><stop offset="0" style="stop-color:#7DABDC"/><stop offset="1" style="stop-color:#BFEDFF"/></linearGradient><path d="M341.53,167.34c72.52,100.04,80.58,132.28,56.41,183.86      c-13.19,28.12-6.25,70.12,2.8,102.49C360.19,483.44,310.15,501,256,501c-13.12,0-26-1.03-38.56-3.02      c3.02-5.55,6.24-11.5,9.64-17.84c58.03-107.98-62.86-148.28-29.01-236.51c22.01-57.37-48.67-130.29-100.8-174.26      C140.03,32.97,195.44,11,256,11c35.15,0,68.58,7.4,98.79,20.74C326.41,56.5,294.75,102.82,341.53,167.34z M337,293l-19.32-28      l-45.09,18.68L286,340l31.68-11L337,293z" id="XMLID_1867_" style="fill:url(#XMLID_5_);"/></g><g id="XMLID_1849_"><g id="XMLID_1865_"><path d="M256,511c-13.458,0-26.958-1.058-40.125-3.143c-59.311-9.374-113.685-39.722-153.101-85.451       C22.938,376.19,1,317.093,1,256c0-74.869,32.727-145.668,89.788-194.245C136.812,22.577,195.485,1,256,1       c35.787,0,70.384,7.265,102.829,21.592C451.268,63.363,511,154.982,511,256c0,40.73-9.84,81.246-28.455,117.168       c-18.009,34.751-44.252,65.384-75.891,88.587C362.742,493.971,310.646,511,256,511z M256,21       c-55.769,0-109.838,19.882-152.248,55.985C51.162,121.754,21,187.003,21,256c0,116.356,83.271,213.97,198.001,232.104       C231.139,490.025,243.586,491,256,491c50.361,0,98.366-15.689,138.825-45.372C455.047,401.464,491,330.575,491,256       c0-93.098-55.05-177.534-140.245-215.11c-0.002,0-0.003-0.001-0.004-0.001C320.866,27.691,288.987,21,256,21z" id="XMLID_108_"/></g><g id="XMLID_1852_"><path d="M400.734,463.693c-4.373,0-8.39-2.892-9.625-7.311c-13.271-47.466-14.018-84.283-2.223-109.43       c12.208-26.051,14.247-44.117,7.524-66.651c-7.279-24.401-25.525-55.428-62.978-107.093       c-22.586-31.151-30.381-61.761-23.167-90.976c5.204-21.076,17.972-40.599,37.949-58.028c4.161-3.63,10.478-3.202,14.109,0.961       c3.631,4.162,3.2,10.479-0.961,14.109c-40.781,35.579-44.73,76.691-11.738,122.194       c73.221,101.007,83.943,137.264,57.37,193.974c-12.087,25.767-4.836,66.185,3.375,95.555       c1.487,5.318-1.619,10.836-6.938,12.323C402.532,463.573,401.626,463.693,400.734,463.693z" id="XMLID_107_"/></g><g id="XMLID_1851_"><path d="M217.431,507.982c-1.615,0-3.252-0.392-4.771-1.218c-4.851-2.64-6.644-8.712-4.005-13.563       c3.011-5.534,6.222-11.465,9.611-17.787c29.001-53.963,9.872-88.572-10.381-125.214       c-17.822-32.244-36.251-65.586-19.153-110.152c20.29-52.884-52.635-124.846-97.911-163.034       c-4.222-3.561-4.757-9.87-1.197-14.091c3.562-4.222,9.871-4.757,14.091-1.197c60.265,50.831,127.173,124.273,103.689,185.486       c-13.764,35.875,0.949,62.493,17.984,93.313c20.931,37.869,44.654,80.791,10.498,144.349       c-3.406,6.351-6.636,12.318-9.665,17.886C224.411,506.093,220.976,507.982,217.431,507.982z" id="XMLID_106_"/></g><g id="XMLID_1850_"><path d="M286,350c-1.663,0-3.317-0.415-4.807-1.231c-2.479-1.358-4.267-3.702-4.922-6.452l-13.41-56.32       c-1.137-4.778,1.363-9.675,5.901-11.555l45.09-18.68c4.354-1.805,9.38-0.321,12.058,3.559l19.32,28       c2.13,3.087,2.354,7.104,0.581,10.408l-19.32,36c-1.187,2.211-3.161,3.896-5.531,4.718l-31.68,11       C288.214,349.816,287.105,350,286,350z M284.292,289.656l8.875,37.27l17.547-6.093l14.587-27.181l-11.262-16.32       L284.292,289.656z" id="XMLID_103_"/></g></g></g></g></g><g id="Layer_1"/></svg>